<svg xmlns="http://www.w3.org/2000/svg" viewBox="0 0 120 120" width="120" height="120">
    <g transform="translate(0, 8)">
        <polygon points="60,10 80.78,22 80.78,46 60,58 39.22,46 39.22,22" fill="#F7931A" />
        <path
            d="M 60,10 L 80.78,22 L 80.78,46 L 101.56,58 L 101.56,82 L 80.78,94 L 60,82 L 39.22,94 L 18.44,82 L 18.44,58 L 39.22,46 L 39.22,22 Z"
            fill="none" stroke="#FFFFFF" stroke-width="6" stroke-linejoin="round" />
        <path d="M 60,58 L 60,82 M 60,58 L 39.22,46 M 60,58 L 80.78,46" fill="none" stroke="#FFFFFF" stroke-width="6"
            stroke-linecap="round" />
        <g transform="translate(60, 34) rotate(14) scale(0.45) translate(-50, -50)">
            <line x1="44" y1="20" x2="44" y2="30" stroke="#FFFFFF" stroke-width="8" stroke-linecap="round" />
            <line x1="56" y1="20" x2="56" y2="30" stroke="#FFFFFF" stroke-width="8" stroke-linecap="round" />
            <line x1="44" y1="70" x2="44" y2="80" stroke="#FFFFFF" stroke-width="8" stroke-linecap="round" />
            <line x1="56" y1="70" x2="56" y2="80" stroke="#FFFFFF" stroke-width="8" stroke-linecap="round" />
            <path d="M 38,30 L 60,30 A 10,10 0 0 1 60,50 A 10,10 0 0 1 60,70 L 38,70 Z" fill="none" stroke="#FFFFFF"
                stroke-width="8" stroke-linecap="round" stroke-linejoin="round" />
            <line x1="38" y1="50" x2="60" y2="50" stroke="#FFFFFF" stroke-width="8" stroke-linecap="round" />
        </g>
    </g>
</svg>